<mxfile host="app.diagrams.net" agent="Mozilla/5.0 (Windows NT 10.0; Win64; x64; rv:131.0) Gecko/20100101 Firefox/131.0" version="24.7.17">
  <diagram name="Seite-1" id="q0og09DDJhan4v6u8YL7">
    <mxGraphModel dx="3492" dy="971" grid="1" gridSize="10" guides="1" tooltips="1" connect="1" arrows="1" fold="1" page="1" pageScale="1" pageWidth="827" pageHeight="1169" math="0" shadow="0">
      <root>
        <mxCell id="0" />
        <mxCell id="1" parent="0" />
        <mxCell id="8NqMuoW7_EGpXgVsgxMA-8" style="rounded=0;orthogonalLoop=1;jettySize=auto;html=1;exitX=0.5;exitY=1;exitDx=0;exitDy=0;entryX=0.5;entryY=0;entryDx=0;entryDy=0;" edge="1" parent="1" source="8NqMuoW7_EGpXgVsgxMA-1" target="8NqMuoW7_EGpXgVsgxMA-4">
          <mxGeometry relative="1" as="geometry" />
        </mxCell>
        <mxCell id="8NqMuoW7_EGpXgVsgxMA-9" style="rounded=0;orthogonalLoop=1;jettySize=auto;html=1;exitX=0.5;exitY=1;exitDx=0;exitDy=0;entryX=0.479;entryY=-0.071;entryDx=0;entryDy=0;entryPerimeter=0;" edge="1" parent="1" source="8NqMuoW7_EGpXgVsgxMA-1" target="8NqMuoW7_EGpXgVsgxMA-3">
          <mxGeometry relative="1" as="geometry" />
        </mxCell>
        <mxCell id="8NqMuoW7_EGpXgVsgxMA-1" value="&lt;font style=&quot;font-size: 24px;&quot;&gt;d&lt;/font&gt;" style="ellipse;whiteSpace=wrap;html=1;aspect=fixed;fillColor=#dae8fc;strokeColor=#6c8ebf;" vertex="1" parent="1">
          <mxGeometry x="-550" y="290" width="60" height="60" as="geometry" />
        </mxCell>
        <mxCell id="8NqMuoW7_EGpXgVsgxMA-5" style="edgeStyle=orthogonalEdgeStyle;rounded=0;orthogonalLoop=1;jettySize=auto;html=1;endArrow=none;endFill=0;shape=link;" edge="1" parent="1" source="8NqMuoW7_EGpXgVsgxMA-2" target="8NqMuoW7_EGpXgVsgxMA-1">
          <mxGeometry relative="1" as="geometry" />
        </mxCell>
        <mxCell id="8NqMuoW7_EGpXgVsgxMA-2" value="&lt;font style=&quot;font-size: 24px;&quot;&gt;User&lt;/font&gt;" style="rounded=1;whiteSpace=wrap;html=1;arcSize=9;fillColor=#d5e8d4;strokeColor=#82b366;" vertex="1" parent="1">
          <mxGeometry x="-575" y="180" width="110" height="50" as="geometry" />
        </mxCell>
        <mxCell id="8NqMuoW7_EGpXgVsgxMA-23" style="edgeStyle=orthogonalEdgeStyle;rounded=0;orthogonalLoop=1;jettySize=auto;html=1;entryX=0.5;entryY=0;entryDx=0;entryDy=0;endArrow=none;endFill=0;" edge="1" parent="1" source="8NqMuoW7_EGpXgVsgxMA-3" target="8NqMuoW7_EGpXgVsgxMA-20">
          <mxGeometry relative="1" as="geometry" />
        </mxCell>
        <mxCell id="8NqMuoW7_EGpXgVsgxMA-25" value="[1..40]" style="edgeLabel;html=1;align=center;verticalAlign=middle;resizable=0;points=[];" vertex="1" connectable="0" parent="8NqMuoW7_EGpXgVsgxMA-23">
          <mxGeometry x="-0.5722" relative="1" as="geometry">
            <mxPoint as="offset" />
          </mxGeometry>
        </mxCell>
        <mxCell id="8NqMuoW7_EGpXgVsgxMA-3" value="&lt;font style=&quot;font-size: 24px;&quot;&gt;Student&lt;/font&gt;" style="rounded=1;whiteSpace=wrap;html=1;arcSize=9;fillColor=#d5e8d4;strokeColor=#82b366;" vertex="1" parent="1">
          <mxGeometry x="-715" y="450" width="110" height="50" as="geometry" />
        </mxCell>
        <mxCell id="8NqMuoW7_EGpXgVsgxMA-4" value="&lt;font style=&quot;font-size: 24px;&quot;&gt;Lecturer&lt;/font&gt;" style="rounded=1;whiteSpace=wrap;html=1;arcSize=9;fillColor=#d5e8d4;strokeColor=#82b366;" vertex="1" parent="1">
          <mxGeometry x="-435" y="450" width="110" height="50" as="geometry" />
        </mxCell>
        <mxCell id="8NqMuoW7_EGpXgVsgxMA-14" style="rounded=0;orthogonalLoop=1;jettySize=auto;html=1;exitX=1;exitY=1;exitDx=0;exitDy=0;endArrow=none;endFill=0;" edge="1" parent="1" source="8NqMuoW7_EGpXgVsgxMA-10" target="8NqMuoW7_EGpXgVsgxMA-2">
          <mxGeometry relative="1" as="geometry" />
        </mxCell>
        <mxCell id="8NqMuoW7_EGpXgVsgxMA-10" value="&lt;u&gt;&lt;font size=&quot;3&quot;&gt;username&lt;/font&gt;&lt;/u&gt;" style="ellipse;whiteSpace=wrap;html=1;fillColor=#60a917;fontColor=#ffffff;strokeColor=#2D7600;" vertex="1" parent="1">
          <mxGeometry x="-745" y="110" width="110" height="60" as="geometry" />
        </mxCell>
        <mxCell id="8NqMuoW7_EGpXgVsgxMA-15" style="rounded=0;orthogonalLoop=1;jettySize=auto;html=1;exitX=0.5;exitY=1;exitDx=0;exitDy=0;endArrow=none;endFill=0;" edge="1" parent="1" source="8NqMuoW7_EGpXgVsgxMA-11" target="8NqMuoW7_EGpXgVsgxMA-2">
          <mxGeometry relative="1" as="geometry" />
        </mxCell>
        <mxCell id="8NqMuoW7_EGpXgVsgxMA-11" value="&lt;font size=&quot;3&quot;&gt;first_name&lt;/font&gt;" style="ellipse;whiteSpace=wrap;html=1;fillColor=#60a917;fontColor=#ffffff;strokeColor=#2D7600;" vertex="1" parent="1">
          <mxGeometry x="-575" y="70" width="110" height="60" as="geometry" />
        </mxCell>
        <mxCell id="8NqMuoW7_EGpXgVsgxMA-16" style="rounded=0;orthogonalLoop=1;jettySize=auto;html=1;exitX=0;exitY=1;exitDx=0;exitDy=0;endArrow=none;endFill=0;" edge="1" parent="1" source="8NqMuoW7_EGpXgVsgxMA-12" target="8NqMuoW7_EGpXgVsgxMA-2">
          <mxGeometry relative="1" as="geometry" />
        </mxCell>
        <mxCell id="8NqMuoW7_EGpXgVsgxMA-12" value="&lt;font size=&quot;3&quot;&gt;last_name&lt;/font&gt;" style="ellipse;whiteSpace=wrap;html=1;fillColor=#60a917;fontColor=#ffffff;strokeColor=#2D7600;" vertex="1" parent="1">
          <mxGeometry x="-380" y="110" width="110" height="60" as="geometry" />
        </mxCell>
        <mxCell id="8NqMuoW7_EGpXgVsgxMA-17" value="&lt;font style=&quot;font-size: 18px;&quot;&gt;Course&lt;/font&gt;" style="rounded=1;whiteSpace=wrap;html=1;arcSize=9;fillColor=#d5e8d4;strokeColor=#82b366;" vertex="1" parent="1">
          <mxGeometry x="-715" y="715" width="110" height="50" as="geometry" />
        </mxCell>
        <mxCell id="8NqMuoW7_EGpXgVsgxMA-19" style="rounded=0;orthogonalLoop=1;jettySize=auto;html=1;endArrow=none;endFill=0;" edge="1" parent="1" source="8NqMuoW7_EGpXgVsgxMA-18" target="8NqMuoW7_EGpXgVsgxMA-17">
          <mxGeometry relative="1" as="geometry" />
        </mxCell>
        <mxCell id="8NqMuoW7_EGpXgVsgxMA-18" value="&lt;font size=&quot;3&quot;&gt;&lt;u&gt;name&lt;/u&gt;&lt;/font&gt;" style="ellipse;whiteSpace=wrap;html=1;fillColor=#60a917;fontColor=#ffffff;strokeColor=#2D7600;" vertex="1" parent="1">
          <mxGeometry x="-855" y="710" width="110" height="60" as="geometry" />
        </mxCell>
        <mxCell id="8NqMuoW7_EGpXgVsgxMA-24" style="edgeStyle=orthogonalEdgeStyle;rounded=0;orthogonalLoop=1;jettySize=auto;html=1;endArrow=none;endFill=0;" edge="1" parent="1" source="8NqMuoW7_EGpXgVsgxMA-20" target="8NqMuoW7_EGpXgVsgxMA-17">
          <mxGeometry relative="1" as="geometry" />
        </mxCell>
        <mxCell id="8NqMuoW7_EGpXgVsgxMA-26" value="1" style="edgeLabel;html=1;align=center;verticalAlign=middle;resizable=0;points=[];" vertex="1" connectable="0" parent="8NqMuoW7_EGpXgVsgxMA-24">
          <mxGeometry x="0.4978" y="-2" relative="1" as="geometry">
            <mxPoint x="1" as="offset" />
          </mxGeometry>
        </mxCell>
        <mxCell id="8NqMuoW7_EGpXgVsgxMA-20" value="&lt;div style=&quot;font-size: 14px;&quot;&gt;&lt;font style=&quot;font-size: 14px;&quot;&gt;participates&lt;/font&gt;&lt;/div&gt;&lt;div style=&quot;font-size: 14px;&quot;&gt;&lt;font style=&quot;font-size: 14px;&quot;&gt;in&lt;br&gt;&lt;/font&gt;&lt;/div&gt;" style="rhombus;whiteSpace=wrap;html=1;fillColor=#f0a30a;strokeColor=#BD7000;fontColor=#000000;" vertex="1" parent="1">
          <mxGeometry x="-715" y="560" width="110" height="80" as="geometry" />
        </mxCell>
      </root>
    </mxGraphModel>
  </diagram>
</mxfile>
